<svg width="153" height="47" viewBox="0 0 153 47" fill="none" xmlns="http://www.w3.org/2000/svg">
<path d="M123.083 3.61622C119.77 3.63295 117.526 6.7996 117.509 10.0719C117.493 13.3441 119.706 16.4883 123.019 16.4715C126.332 16.4548 128.576 13.2882 128.593 10.0159C128.609 6.74363 126.396 3.59949 123.083 3.61622ZM107.73 20.0371C106.709 16.9284 107.833 13.2138 110.971 12.1478C114.108 11.0819 117.203 13.3628 118.224 16.4715C119.246 19.5803 118.121 23.2949 114.984 24.3608C111.847 25.4268 108.752 23.1459 107.73 20.0371ZM131.509 10.0012C131.526 6.7289 133.77 3.56225 137.083 3.54552C140.396 3.52879 142.609 6.67293 142.593 9.9452C142.576 13.2175 140.332 16.3841 137.019 16.4008C133.706 16.4176 131.493 13.2734 131.509 10.0012ZM141.224 17.1457C142.285 14.0502 145.424 11.7667 148.569 12.8096C151.714 13.8526 152.806 17.5389 151.744 20.6343C150.683 23.7298 147.545 26.0133 144.4 24.9704C141.255 23.9275 140.163 20.2412 141.224 17.1457Z" fill="#7EBCE8"/>
<path d="M0 46.5455V0H15.7273C19.3788 0 22.3636 0.659091 24.6818 1.97727C27.0152 3.2803 28.7424 5.04546 29.8636 7.27273C30.9848 9.5 31.5455 11.9848 31.5455 14.7273C31.5455 17.4697 30.9848 19.9621 29.8636 22.2045C28.7576 24.447 27.0455 26.2348 24.7273 27.5682C22.4091 28.8864 19.4394 29.5455 15.8182 29.5455H4.54545V24.5455H15.6364C18.1364 24.5455 20.1439 24.1136 21.6591 23.25C23.1742 22.3864 24.2727 21.2197 24.9545 19.75C25.6515 18.2652 26 16.5909 26 14.7273C26 12.8636 25.6515 11.197 24.9545 9.72727C24.2727 8.25758 23.1667 7.10606 21.6364 6.27273C20.1061 5.42424 18.0758 5 15.5455 5H5.63636V46.5455H0Z" fill="#7EBCE8"/>
<path d="M40.625 46.5455V0H68.7159V5H46.2614V20.7273H67.2614V25.7273H46.2614V41.5455H69.0795V46.5455H40.625Z" fill="#7EBCE8"/>
<path d="M76.3295 5V0H111.239V5H96.6023V46.5455H90.9659V5H76.3295Z" fill="#7EBCE8"/>
<path d="M142.369 32C142.369 35.0682 141.815 37.7197 140.707 39.9545C139.599 42.1894 138.08 43.9129 136.148 45.125C134.216 46.3371 132.009 46.9432 129.528 46.9432C127.047 46.9432 124.841 46.3371 122.909 45.125C120.977 43.9129 119.457 42.1894 118.349 39.9545C117.241 37.7197 116.688 35.0682 116.688 32C116.688 28.9318 117.241 26.2803 118.349 24.0455C119.457 21.8106 120.977 20.0871 122.909 18.875C124.841 17.6629 127.047 17.0568 129.528 17.0568C132.009 17.0568 134.216 17.6629 136.148 18.875C138.08 20.0871 139.599 21.8106 140.707 24.0455C141.815 26.2803 142.369 28.9318 142.369 32ZM138.96 32C138.96 29.4811 138.539 27.3551 137.696 25.6222C136.863 23.8892 135.731 22.5777 134.301 21.6875C132.881 20.7973 131.29 20.3523 129.528 20.3523C127.767 20.3523 126.171 20.7973 124.741 21.6875C123.321 22.5777 122.189 23.8892 121.347 25.6222C120.513 27.3551 120.097 29.4811 120.097 32C120.097 34.5189 120.513 36.6449 121.347 38.3778C122.189 40.1108 123.321 41.4223 124.741 42.3125C126.171 43.2027 127.767 43.6477 129.528 43.6477C131.29 43.6477 132.881 43.2027 134.301 42.3125C135.731 41.4223 136.863 40.1108 137.696 38.3778C138.539 36.6449 138.96 34.5189 138.96 32Z" fill="#7EBCE8"/>
</svg>
